<?xml version="1.0" standalone="no"?>
<!DOCTYPE svg PUBLIC "-//W3C//DTD SVG 20010904//EN"
 "http://www.w3.org/TR/2001/REC-SVG-20010904/DTD/svg10.dtd">
<svg version="1.0" xmlns="http://www.w3.org/2000/svg"
 width="2844.000000pt" height="2090.000000pt" viewBox="0 0 2844.000000 2090.000000"
 preserveAspectRatio="xMidYMid meet">
<metadata>
Created by potrace 1.16, written by Peter Selinger 2001-2019
</metadata>
<g transform="translate(0.000000,2090.000000) scale(0.100000,-0.100000)"
fill="#000000" stroke="none">
<path d="M13955 20888 c-227 -25 -469 -94 -645 -182 -170 -85 -2618 -1503
-2700 -1564 -41 -30 -108 -85 -147 -120 l-73 -64 0 -107 0 -106 -101 -48 c-84
-40 -113 -61 -178 -125 -71 -71 -84 -90 -154 -232 -86 -176 -156 -370 -195
-545 l-26 -120 -4 -1555 c-2 -855 0 -1598 3 -1650 l7 -95 125 -126 124 -126
-15 -76 c-36 -171 -12 -339 65 -470 46 -80 156 -238 213 -307 74 -89 243 -253
331 -320 59 -45 535 -326 1374 -810 706 -408 1313 -756 1350 -774 144 -73 358
-138 541 -166 41 -6 85 -13 98 -16 19 -4 22 0 22 26 0 16 2 30 4 30 2 0 25
-10 52 -22 83 -36 145 -48 259 -48 280 0 622 71 860 179 75 34 2570 1474 2681
1547 44 29 116 84 160 121 l79 69 3 121 3 120 42 12 c77 23 181 85 247 148 53
49 75 80 108 150 215 452 57 1032 -356 1312 -114 76 -67 71 -612 71 l-492 0
-86 -56 c-111 -72 -234 -195 -304 -304 -31 -47 -171 -285 -311 -530 -336 -586
-321 -561 -408 -644 -85 -81 -176 -133 -289 -167 l-75 -23 -1220 -4 c-798 -2
-1253 1 -1316 7 -213 23 -394 127 -502 288 -25 37 -300 511 -612 1053 -312
542 -580 1003 -595 1025 -70 104 -100 199 -107 340 -8 162 25 278 117 420 21
33 299 512 618 1065 568 987 580 1006 658 1085 85 87 163 134 289 177 l70 23
1260 3 c926 2 1280 0 1335 -8 148 -24 282 -91 385 -195 52 -52 102 -134 379
-619 176 -307 338 -584 361 -615 49 -65 181 -193 246 -238 112 -77 261 -139
408 -168 116 -24 362 -16 476 15 177 48 359 155 487 288 126 130 209 274 265
457 25 84 27 102 27 280 1 211 -7 259 -71 414 -93 228 -356 555 -588 731 -58
45 -538 328 -1365 805 -701 406 -1313 756 -1360 780 -142 72 -353 138 -525
165 -38 6 -82 13 -97 15 -26 4 -28 2 -28 -30 0 -34 -1 -35 -22 -21 -13 8 -58
26 -100 40 -69 24 -90 26 -225 25 -81 -1 -184 -6 -228 -11z"/>
<path d="M5535 10760 c-11 -4 -31 -20 -45 -35 l-25 -27 -3 -3890 c-2 -3607 -1
-3892 15 -3925 9 -19 34 -47 56 -61 l41 -27 425 0 c422 0 426 0 461 22 20 12
46 40 58 61 l22 40 0 1393 c0 813 4 1473 10 1584 29 534 118 885 285 1120 58
81 189 205 283 266 278 182 642 269 998 240 687 -58 1026 -403 1133 -1156 38
-264 41 -393 41 -1930 0 -1434 1 -1502 19 -1540 10 -22 28 -48 39 -58 48 -43
79 -46 477 -46 209 0 398 4 419 9 54 12 87 38 114 91 l23 44 -4 1630 c-5 1643
-5 1676 -43 1965 -93 719 -351 1191 -864 1576 -308 232 -701 383 -1107 425
-171 17 -540 7 -678 -20 -376 -72 -693 -220 -940 -440 -145 -128 -174 -141
-195 -86 -6 17 -10 472 -10 1254 l0 1228 -23 44 c-46 86 -57 90 -502 179 -398
80 -442 86 -480 70z"/>
<path d="M27890 10691 c-212 -42 -399 -85 -416 -94 -44 -23 -91 -80 -103 -124
-7 -26 -11 -453 -11 -1310 0 -1260 0 -1273 -20 -1293 -11 -11 -28 -20 -39 -20
-10 0 -67 37 -127 82 -297 223 -631 414 -860 492 -236 80 -472 116 -769 116
-211 0 -387 -16 -559 -51 -533 -107 -1029 -382 -1451 -804 -454 -454 -720
-991 -810 -1636 -22 -158 -31 -571 -15 -740 59 -654 312 -1240 745 -1729 357
-403 870 -716 1399 -855 260 -68 356 -79 691 -80 250 0 317 3 400 19 433 80
750 231 1238 593 54 40 106 73 116 73 9 0 26 -6 37 -14 17 -13 19 -31 24 -213
l5 -200 28 -36 c56 -74 43 -72 512 -72 406 0 421 1 455 21 19 11 45 35 57 54
l23 33 0 3889 c0 3385 -2 3893 -15 3917 -17 34 -70 61 -117 60 -18 0 -206 -35
-418 -78z m-2109 -3141 c123 -12 270 -42 377 -76 113 -36 343 -154 452 -231
116 -84 295 -260 379 -373 247 -335 371 -760 371 -1269 0 -538 -140 -994 -408
-1331 -58 -73 -201 -218 -277 -280 -494 -405 -1246 -485 -1850 -195 -513 247
-865 705 -979 1275 -36 181 -46 294 -46 522 0 482 104 873 315 1187 355 530
1014 835 1666 771z"/>
<path d="M2635 8534 c-16 -2 -73 -9 -125 -15 -508 -58 -1009 -268 -1420 -595
-122 -97 -413 -392 -501 -509 -339 -447 -523 -921 -578 -1489 -14 -140 -14
-533 -1 -667 72 -713 374 -1333 896 -1839 505 -488 1101 -741 1838 -779 680
-35 1251 119 1781 480 207 141 518 417 554 492 23 47 27 100 11 144 -12 32
-521 547 -562 569 -38 20 -127 18 -159 -4 -14 -9 -77 -69 -141 -133 -368 -367
-677 -520 -1134 -560 -222 -19 -506 8 -713 67 -569 165 -999 582 -1180 1147
-71 222 -105 462 -104 747 0 220 10 336 48 525 96 478 362 883 754 1146 176
119 332 188 539 238 179 44 286 55 502 54 295 -1 499 -43 718 -148 184 -89
327 -192 542 -394 63 -59 125 -113 137 -119 29 -16 112 -15 141 2 36 19 541
514 556 545 23 44 28 87 16 133 -9 35 -29 60 -108 137 -397 385 -888 662
-1352 765 -231 50 -308 58 -625 61 -165 2 -313 1 -330 -1z"/>
<path d="M13185 8534 c-16 -2 -66 -9 -110 -14 -575 -75 -1077 -330 -1521 -774
-475 -475 -739 -1023 -830 -1721 -22 -165 -25 -648 -6 -805 88 -718 355 -1285
836 -1779 152 -155 277 -260 436 -366 481 -321 1057 -468 1709 -435 409 21
744 103 1076 264 292 141 500 290 741 530 173 174 290 314 415 499 70 104 79
123 79 163 0 52 -19 95 -53 117 -13 8 -176 79 -363 158 -453 190 -471 192
-557 50 -94 -154 -186 -263 -312 -369 -364 -307 -857 -462 -1343 -424 -429 34
-754 175 -1023 442 -225 224 -381 492 -478 819 -35 117 -39 170 -15 207 38 58
-104 54 2096 54 1381 0 2035 3 2061 11 45 12 101 59 115 96 28 74 18 506 -18
786 -49 380 -143 698 -301 1017 -235 473 -611 881 -1052 1142 -268 159 -548
257 -894 314 -93 15 -609 29 -688 18z m587 -993 c285 -57 516 -174 715 -365
231 -221 382 -466 493 -806 63 -188 69 -233 40 -278 -41 -66 60 -62 -1575 -62
-1617 0 -1527 -3 -1574 56 -32 41 -25 104 33 279 101 304 254 562 452 760 244
244 548 390 904 434 122 16 389 6 512 -18z"/>
<path d="M19095 8534 c-304 -35 -503 -81 -732 -170 -696 -269 -1317 -859
-1612 -1532 -167 -381 -243 -769 -243 -1237 -1 -526 99 -954 322 -1395 343
-675 962 -1200 1690 -1434 303 -98 545 -131 902 -123 207 4 263 8 380 31 368
70 726 242 1140 548 73 54 144 101 156 105 17 4 30 -1 45 -16 l22 -22 5 -1607
c4 -1231 8 -1612 17 -1628 21 -36 59 -54 114 -54 49 0 737 129 808 152 43 14
110 74 128 115 11 27 13 667 13 3823 l0 3790 -33 36 c-53 58 -68 57 -527 -35
-519 -103 -500 -105 -748 76 -390 285 -715 450 -1037 526 -182 43 -323 57
-563 56 -119 -1 -230 -4 -247 -5z m475 -985 c303 -27 564 -118 801 -278 366
-246 607 -599 722 -1058 55 -216 71 -360 70 -638 0 -322 -31 -530 -119 -792
-39 -118 -156 -346 -231 -453 -87 -122 -281 -317 -403 -402 -431 -305 -1050
-390 -1573 -217 -50 17 -146 57 -212 89 -502 245 -826 645 -955 1183 -50 206
-64 337 -64 592 0 316 32 538 111 775 264 790 1015 1276 1853 1199z"/>
</g>
</svg>
